<?xml version="1.0" encoding="UTF-8"?>
<svg width="20px" height="20px" viewBox="0 0 20 20" version="1.1" xmlns="http://www.w3.org/2000/svg" xmlns:xlink="http://www.w3.org/1999/xlink">
    <!-- Generator: Sketch 63.1 (92452) - https://sketch.com -->
    <title>Search Icon</title>
    <desc>Created with Sketch.</desc>
    <g id="Web-App" stroke="none" stroke-width="1" fill="none" fill-rule="evenodd">
        <g id="List-Page" transform="translate(-26.000000, -22.000000)" fill="#9B9B9B">
            <g id="Top-Nav">
                <g id="Search" transform="translate(16.000000, 12.000000)">
                    <g id="Menu-Search---Light-Gray" transform="translate(8.000000, 8.000000)">
                        <path d="M17.8238377,15.262254 L21.4257779,18.7545547 C22.1316989,19.4389882 22.1829517,20.5504351 21.5858464,21.2962722 L21.4737458,21.423934 C20.7527919,22.1734971 19.5634405,22.1946479 18.8149731,21.4689631 L15.2130329,17.9766623 C14.5071119,17.2922288 14.4558591,16.180782 15.0529644,15.4349448 L15.165065,15.3072831 C15.8860189,14.5577199 17.0753703,14.5365691 17.8238377,15.262254 Z M9.72560226,2 C13.9923346,2 17.4512045,5.47293569 17.4512045,9.75701898 C17.4512045,14.0411023 13.9923346,17.514038 9.72560226,17.514038 C5.45886995,17.514038 2,14.0411023 2,9.75701898 C2,5.47293569 5.45886995,2 9.72560226,2 Z M9.72560226,4.93508826 C7.0733092,4.93508826 4.92320086,7.09394018 4.92320086,9.75701898 C4.92320086,12.4200978 7.0733092,14.5789497 9.72560226,14.5789497 C12.3778953,14.5789497 14.5280037,12.4200978 14.5280037,9.75701898 C14.5280037,7.09394018 12.3778953,4.93508826 9.72560226,4.93508826 Z" id="Combined-Shape"></path>
                    </g>
                </g>
            </g>
        </g>
    </g>
</svg>